<svg xmlns="http://www.w3.org/2000/svg" width="48" height="48" viewBox="0 0 48 48">
  <path fill="#4285f4" d="M44 24.5c0-1.5-.1-2.7-.4-4H24v7.6h11.2c-.2 1.9-1.4 4.7-4 6.6v5.5h6.5c3.8-3.5 6.3-8.7 6.3-15.7z"/>
  <path fill="#34a853" d="M24 45c5.4 0 10-1.8 13.3-4.9l-6.5-5.5c-1.8 1.2-4.1 2-6.8 2-5.2 0-9.6-3.5-11.2-8.2H6.1v5.7C9.4 40.5 16.1 45 24 45z"/>
  <path fill="#fbbc05" d="M12.8 28.4c-.4-1.2-.7-2.8-.7-4.4s.2-3.1.7-4.4v-5.7H6.1A21 21 0 0 0 4 24c0 3.6.8 7 2.1 10.1z"/>
  <path fill="#ea4335" d="M24 11.4c3 0 5.1 1.3 6.3 2.4l5.8-5.7C32.5 4.8 29.4 3 24 3 16.1 3 9.4 7.5 6.1 13.9l6.7 5.7c1.6-4.7 6-8.2 11.2-8.2z"/>
</svg>
